[center][img]http://img815.imageshack.us/img815/8226/bluevalentinemovieposte.jpg[/img][/center]

[center][img]http://leetleech.org/images/48874973695367351744.png[/img][/center]

[center]Format                           : AVI
Format/Info                      : Audio Video Interleave
File size                        : 1.33 GiB
Duration                         : 1h 49mn
Overall bit rate                 : 1 736 Kbps
Writing application              : VirtualDubMod 1.5.10.2 (build 2540/release)
Writing library                  : VirtualDub build 32839/release

Video
ID                               : 0
Format                           : MPEG-4 Visual
Format profile                   : Advanced Simple@L5
Format settings, BVOP            : Yes
Format settings, QPel            : No
Format settings, GMC             : No warppoints
Format settings, Matrix          : Custom
Codec ID                         : XVID
Codec ID/Hint                    : XviD
Duration                         : 1h 49mn
Bit rate                         : 1 279 Kbps
Width                            : 720 pixels
Height                           : 390 pixels
Display aspect ratio             : 16:9
Frame rate                       : 23.976 fps
Color space                      : YUV
Chroma subsampling               : 4:2:0
Bit depth                        : 8 bits
Scan type                        : Progressive
Bits/(Pixel*Frame)               : 0.190
Stream size                      : 1 004 MiB (74%)
Writing library                  : XviD 1.2.1 (UTC 2008-12-04)

Audio
ID                               : 1
Format                           : AC-3
Format/Info                      : Audio Coding 3
Mode extension                   : CM (complete main)
Codec ID                         : 2000
Duration                         : 1h 49mn
Bit rate mode                    : Constant
Bit rate                         : 448 Kbps
Channel(s)                       : 6 channels
Channel positions                : Front: L C R, Side: L R, LFE
Sampling rate                    : 48.0 KHz
Bit depth                        : 16 bits
Stream size                      : 352 MiB (26%)
Alignment                        : Split accross interleaves
Interleave, duration             : 42 ms (1.00 video frame)
Interleave, preload duration     : 500 ms

[/center]


[center][url]http://www.imdb.com/title/tt1120985/[/url][/center]



[center]Users: 8.1/10 (1,756 votes) 36 reviews | Critics: 90 reviews Metascore: 80/100 (based on 39 reviews from Metacritic.com)

The film centers on a contemporary married couple, charting their evolution over a span of years by cross-cutting between time periods.
Director:
Derek Cianfrance
Writers:
Derek Cianfrance, Cami Delavigne, and 1 more credit »
Stars:
Ryan Gosling, Michelle Williams and John Doman
[/center]


[center][img]http://leetleech.org/images/95521316153253938506.png[/img][/center]




[center][img]http://img266.imageshack.us/img266/6015/vlcsnap2011011811h59m50.png[/img][/center]

[center][img]http://img833.imageshack.us/img833/9580/vlcsnap2011011812h01m00.png[/img][/center]

[center][img]http://img510.imageshack.us/img510/3240/vlcsnap2011011812h00m34.png[/img][/center]



[center]Video Source - Demedic ( Thanks )
            Audio Source - Demedic  (Thanks )

 Ran a few filters through an already good video just sharpened it up a touch and altered the colours.Cropped black borders out and resized .Enjoy ![/center]


[center]Greetz to Imagine ,Flawl3ss ,Santi ,Vision ,Kingdom,BDK,DiGiTALiNK,LEGION,Classified,THC,WBZ,Rx ,Feel Free and to all who share[/center]


[center][img]http://signatures.mylivesignature.com/54488/364/63C91F8D3F952BFA8B83650965539EC2.png[/img][/center]